   <svg viewBox="0 0 18 18" fill="none" xmlns="http://www.w3.org/2000/svg">
                  <path d="M8.40854 11.7416C8.3727 11.7812 8.33931 11.823 8.30854 11.8666C8.277 11.9131 8.25178 11.9635 8.23354 12.0166C8.20951 12.0639 8.19266 12.1144 8.18354 12.1666C8.17945 12.2221 8.17945 12.2778 8.18354 12.3333C8.18072 12.4426 8.20356 12.5511 8.25021 12.65C8.28763 12.7534 8.34734 12.8473 8.42511 12.9251C8.50288 13.0028 8.59679 13.0625 8.70021 13.1C8.79996 13.144 8.90781 13.1668 9.01687 13.1668C9.12593 13.1668 9.23379 13.144 9.33354 13.1C9.43695 13.0625 9.53087 13.0028 9.60864 12.9251C9.6864 12.8473 9.74611 12.7534 9.78354 12.65C9.82054 12.5486 9.83753 12.4411 9.83354 12.3333C9.83417 12.2236 9.81315 12.1149 9.77168 12.0134C9.73021 11.9118 9.66911 11.8195 9.59187 11.7416C9.5144 11.6635 9.42224 11.6015 9.32069 11.5592C9.21914 11.5169 9.11022 11.4951 9.00021 11.4951C8.8902 11.4951 8.78128 11.5169 8.67973 11.5592C8.57818 11.6015 8.48601 11.6635 8.40854 11.7416ZM9.00021 0.666626C7.35203 0.666626 5.74086 1.15537 4.37045 2.07105C3.00005 2.98672 1.93194 4.28821 1.30121 5.81093C0.670481 7.33365 0.505453 9.0092 0.826997 10.6257C1.14854 12.2422 1.94221 13.7271 3.10765 14.8925C4.27309 16.058 5.75795 16.8516 7.37445 17.1732C8.99096 17.4947 10.6665 17.3297 12.1892 16.699C13.712 16.0682 15.0134 15.0001 15.9291 13.6297C16.8448 12.2593 17.3335 10.6481 17.3335 8.99996C17.3335 7.90561 17.118 6.82198 16.6992 5.81093C16.2804 4.79988 15.6666 3.88122 14.8928 3.1074C14.1189 2.33358 13.2003 1.71975 12.1892 1.30096C11.1782 0.882174 10.0946 0.666626 9.00021 0.666626ZM9.00021 15.6666C7.68166 15.6666 6.39273 15.2756 5.2964 14.5431C4.20008 13.8105 3.34559 12.7694 2.84101 11.5512C2.33643 10.333 2.2044 8.99256 2.46164 7.69936C2.71887 6.40615 3.35381 5.21826 4.28616 4.28591C5.21851 3.35356 6.4064 2.71863 7.6996 2.46139C8.99281 2.20416 10.3333 2.33618 11.5514 2.84076C12.7696 3.34535 13.8108 4.19983 14.5433 5.29616C15.2759 6.39249 15.6669 7.68142 15.6669 8.99996C15.6669 10.7681 14.9645 12.4638 13.7143 13.714C12.464 14.9642 10.7683 15.6666 9.00021 15.6666ZM9.00021 4.83329C8.56109 4.83301 8.12965 4.94839 7.7493 5.16783C7.36894 5.38726 7.0531 5.70301 6.83354 6.08329C6.77324 6.17814 6.73276 6.28421 6.71452 6.39511C6.69628 6.50601 6.70066 6.61945 6.7274 6.72861C6.75414 6.83778 6.80268 6.94041 6.87011 7.03032C6.93754 7.12024 7.02246 7.19558 7.11977 7.25183C7.21707 7.30808 7.32475 7.34406 7.43632 7.35761C7.54789 7.37116 7.66105 7.362 7.76899 7.33069C7.87693 7.29938 7.97742 7.24655 8.06441 7.17539C8.15141 7.10423 8.22311 7.01621 8.27521 6.91663C8.34863 6.78946 8.45435 6.68394 8.58166 6.61077C8.70898 6.53761 8.85336 6.49938 9.00021 6.49996C9.22122 6.49996 9.43318 6.58776 9.58946 6.74404C9.74574 6.90032 9.83354 7.11228 9.83354 7.33329C9.83354 7.55431 9.74574 7.76627 9.58946 7.92255C9.43318 8.07883 9.22122 8.16663 9.00021 8.16663C8.77919 8.16663 8.56723 8.25442 8.41095 8.4107C8.25467 8.56698 8.16687 8.77895 8.16687 8.99996V9.83329C8.16687 10.0543 8.25467 10.2663 8.41095 10.4225C8.56723 10.5788 8.77919 10.6666 9.00021 10.6666C9.22122 10.6666 9.43318 10.5788 9.58946 10.4225C9.74574 10.2663 9.83354 10.0543 9.83354 9.83329V9.68329C10.3847 9.48331 10.848 9.09598 11.1425 8.58902C11.437 8.08205 11.544 7.4877 11.4447 6.90987C11.3454 6.33203 11.0462 5.80747 10.5994 5.42789C10.1525 5.0483 9.58649 4.83784 9.00021 4.83329Z" fill="currentColor"></path>
                </svg>
