   <svg className="text-gray-100 w-5 h-5 mr-2" width="18" height="18" viewBox="0 0 18 18" fill="none" xmlns="http://www.w3.org/2000/svg" data-config-id="auto-svg-11-1">
                      <path d="M14.8802 0.666748H3.21354C2.55072 0.667472 1.91526 0.931096 1.44657 1.39978C0.977887 1.86846 0.714263 2.50393 0.713539 3.16675V14.8334C0.714263 15.4962 0.977887 16.1317 1.44657 16.6004C1.91526 17.0691 2.55072 17.3327 3.21354 17.3334H14.8802C15.543 17.3327 16.1785 17.0691 16.6472 16.6004C17.1159 16.1317 17.3795 15.4962 17.3802 14.8334V3.16675C17.3795 2.50393 17.1159 1.86846 16.6472 1.39978C16.1785 0.931096 15.543 0.667472 14.8802 0.666748ZM3.21354 2.33341H14.8802C15.1012 2.33364 15.313 2.4215 15.4692 2.57774C15.6255 2.73397 15.7133 2.9458 15.7135 3.16675V9.83342H13.6595C13.3851 9.83319 13.1149 9.90084 12.8729 10.0303C12.631 10.1598 12.4248 10.3471 12.2728 10.5756L11.1009 12.3334H6.99284L5.82096 10.5756C5.66894 10.3471 5.46277 10.1598 5.22083 10.0303C4.97888 9.90084 4.70867 9.83319 4.43425 9.83342H2.38021V3.16675C2.38043 2.9458 2.46829 2.73397 2.62453 2.57774C2.78076 2.4215 2.99259 2.33364 3.21354 2.33341ZM14.8802 15.6667H3.21354C2.99259 15.6665 2.78076 15.5787 2.62453 15.4224C2.46829 15.2662 2.38043 15.0544 2.38021 14.8334V11.5001H4.43425L5.60612 13.2579C5.75815 13.4864 5.96431 13.6737 6.20626 13.8032C6.44821 13.9327 6.71842 14.0003 6.99284 14.0001H11.1009C11.3753 14.0003 11.6455 13.9327 11.8875 13.8032C12.1294 13.6737 12.3356 13.4864 12.4876 13.2579L13.6595 11.5001H15.7135V14.8334C15.7133 15.0544 15.6255 15.2662 15.4692 15.4224C15.313 15.5787 15.1012 15.6665 14.8802 15.6667Z" fill="#E1E4E8"></path>
                    </svg>
